<svg width="25" height="23" viewBox="0 0 25 23" fill="none" xmlns="http://www.w3.org/2000/svg">
<g clip-path="url(#clip0_3330_7997)">
<path d="M12.4008 1.54999C10.2549 1.54999 8.15712 2.18633 6.37285 3.37854C4.58858 4.57076 3.1979 6.26529 2.37669 8.24787C1.55548 10.2305 1.34062 12.412 1.75927 14.5167C2.17792 16.6214 3.21128 18.5547 4.72868 20.0721C6.24608 21.5895 8.17936 22.6229 10.2841 23.0415C12.3888 23.4602 14.5703 23.2453 16.5529 22.4241C18.5355 21.6029 20.23 20.2122 21.4222 18.4279C22.6144 16.6437 23.2508 14.5459 23.2508 12.4C23.2508 9.52239 22.1077 6.76265 20.0729 4.72788C18.0381 2.69311 15.2784 1.54999 12.4008 1.54999ZM9.30079 17.05C9.30079 17.2555 9.21913 17.4527 9.07379 17.598C8.92845 17.7433 8.73133 17.825 8.52579 17.825C8.32024 17.825 8.12312 17.7433 7.97778 17.598C7.83244 17.4527 7.75079 17.2555 7.75079 17.05V11.625C7.75079 11.4194 7.83244 11.2223 7.97778 11.077C8.12312 10.9316 8.32024 10.85 8.52579 10.85C8.73133 10.85 8.92845 10.9316 9.07379 11.077C9.21913 11.2223 9.30079 11.4194 9.30079 11.625V17.05ZM13.1758 17.05C13.1758 17.2555 13.0941 17.4527 12.9488 17.598C12.8035 17.7433 12.6063 17.825 12.4008 17.825C12.1952 17.825 11.9981 17.7433 11.8528 17.598C11.7074 17.4527 11.6258 17.2555 11.6258 17.05V7.74999C11.6258 7.54445 11.7074 7.34732 11.8528 7.20198C11.9981 7.05664 12.1952 6.97499 12.4008 6.97499C12.6063 6.97499 12.8035 7.05664 12.9488 7.20198C13.0941 7.34732 13.1758 7.54445 13.1758 7.74999V17.05ZM17.0508 17.05C17.0508 17.2555 16.9691 17.4527 16.8238 17.598C16.6785 17.7433 16.4813 17.825 16.2758 17.825C16.0702 17.825 15.8731 17.7433 15.7278 17.598C15.5824 17.4527 15.5008 17.2555 15.5008 17.05V9.29999C15.5008 9.09444 15.5824 8.89732 15.7278 8.75198C15.8731 8.60664 16.0702 8.52499 16.2758 8.52499C16.4813 8.52499 16.6785 8.60664 16.8238 8.75198C16.9691 8.89732 17.0508 9.09444 17.0508 9.29999V17.05Z" fill="#16A34A"/>
</g>
<defs>
<clipPath id="clip0_3330_7997">
<rect width="25" height="23" fill="white"/>
</clipPath>
</defs>
</svg>
