<svg width="24" height="24" viewBox="0 0 24 24" fill="none" xmlns="http://www.w3.org/2000/svg">
<g clip-path="url(#clip0_2370_4502)">
<path d="M13.4996 6.50004C13.4996 6.89787 13.3415 7.2794 13.0602 7.5607C12.7789 7.84201 12.3974 8.00004 11.9996 8.00004C11.6017 8.00004 11.2202 7.84201 10.9389 7.5607C10.6576 7.2794 10.4996 6.89787 10.4996 6.50004C10.4996 6.10222 10.6576 5.72069 10.9389 5.43938C11.2202 5.15808 11.6017 5.00004 11.9996 5.00004C12.3974 5.00004 12.7789 5.15808 13.0602 5.43938C13.3415 5.72069 13.4996 6.10222 13.4996 6.50004ZM23.9996 19V12.34C24.0369 9.25749 22.9067 6.27494 20.8359 3.99121C18.7651 1.70749 15.9071 0.29168 12.8356 0.0280426C11.1212 -0.0918997 9.4011 0.157782 7.7916 0.760195C6.1821 1.36261 4.72077 2.3037 3.50648 3.51979C2.29219 4.73588 1.35327 6.19861 0.75324 7.809C0.153213 9.41939 -0.0939187 11.1399 0.028565 12.854C0.470565 19.208 6.08157 24 13.0826 24H18.9996C20.3252 23.9985 21.596 23.4712 22.5333 22.5338C23.4707 21.5965 23.998 20.3256 23.9996 19ZM12.6996 2.02404C15.266 2.25108 17.6515 3.44095 19.3767 5.3546C21.1018 7.26824 22.0389 9.76386 21.9996 12.34V19C21.9996 19.7957 21.6835 20.5588 21.1209 21.1214C20.5583 21.684 19.7952 22 18.9996 22H13.0826C7.04857 22 2.39957 18.1 2.02457 12.716C1.92612 11.3446 2.11154 9.96764 2.56925 8.67111C3.02696 7.37458 3.74712 6.18637 4.68474 5.18071C5.62236 4.17506 6.75729 3.37356 8.01863 2.82629C9.27997 2.27902 10.6406 1.99775 12.0156 2.00004C12.2426 2.00004 12.4716 2.00904 12.6996 2.02404ZM13.9996 18V12C13.9996 11.4696 13.7889 10.9609 13.4138 10.5858C13.0387 10.2108 12.53 10 11.9996 10H10.9996C10.7344 10 10.48 10.1054 10.2925 10.2929C10.1049 10.4805 9.99957 10.7348 9.99957 11C9.99957 11.2653 10.1049 11.5196 10.2925 11.7072C10.48 11.8947 10.7344 12 10.9996 12H11.9996V18C11.9996 18.2653 12.1049 18.5196 12.2925 18.7072C12.48 18.8947 12.7344 19 12.9996 19C13.2648 19 13.5191 18.8947 13.7067 18.7072C13.8942 18.5196 13.9996 18.2653 13.9996 18Z" fill="#000929"/>
</g>
<defs>
<clipPath id="clip0_2370_4502">
<rect width="24" height="24" fill="white"/>
</clipPath>
</defs>
</svg>
