<svg width="73" height="74" viewBox="0 0 73 74" fill="none" xmlns="http://www.w3.org/2000/svg">
<path d="M60.5 63.8369C60.5 65.7699 58.933 67.3369 57 67.3369H16C14.067 67.3369 12.5 65.7699 12.5 63.8369V7.98926C12.5 6.05626 14.067 4.48926 16 4.48926H44.0527C44.9795 4.48926 45.8685 4.85684 46.5246 5.51139L59.4719 18.4274C60.1301 19.084 60.5 19.9755 60.5 20.9052V63.8369Z" fill="#C8EBFE"/>
<path d="M21.875 28.0571H47.375V31.0499H21.875V28.0571ZM21.875 34.0426H41.375V37.0354H21.875V34.0426ZM21.875 40.0281H47.375V43.0209H21.875V40.0281ZM21.875 46.0136H41.375V49.0064H21.875V46.0136Z" fill="white"/>
<rect x="45.5" y="51.1738" width="22.5" height="22.826" rx="11.25" fill="#3787FF"/>
<path d="M56.75 59.5244V65.6494" stroke="white" stroke-width="1.3125" stroke-linecap="round" stroke-linejoin="round"/>
<path d="M53.6875 62.5869H59.8125" stroke="white" stroke-width="1.3125" stroke-linecap="round" stroke-linejoin="round"/>
</svg>
