<svg width="189" height="171" viewBox="0 0 189 171" fill="none" xmlns="http://www.w3.org/2000/svg">
<circle cx="87.3075" cy="86.0184" r="6.0184" fill="#2AD062"/>
<circle cx="86.7281" cy="86.4391" r="3.43909" fill="#2AD062"/>
<circle cx="86.5879" cy="86.2989" r="4.29886" fill="#2AD062"/>
<circle cx="86.8684" cy="86.5793" r="2.57931" fill="#2AD062"/>
<g style="mix-blend-mode:lighten">
<circle cx="87.3075" cy="86.0184" r="6.0184" fill="#2AD062"/>
</g>
<circle cx="87.1672" cy="86.8782" r="6.87817" fill="#2AD062"/>
<circle cx="86.5879" cy="86.2989" r="4.29886" fill="#2AD062"/>
<circle cx="86.5879" cy="86.2989" r="4.29886" fill="#2AD062"/>
<g filter="url(#filter0_d_2459_77492)">
<rect x="54.2891" y="45" width="80" height="80" rx="40" fill="#2AD062" shape-rendering="crispEdges"/>
<rect x="54.2891" y="45" width="80" height="80" rx="40" stroke="#2AD062" stroke-opacity="0.5" stroke-width="16" shape-rendering="crispEdges"/>
<path fill-rule="evenodd" clip-rule="evenodd" d="M108.661 74.6444C109.498 75.5035 109.498 76.8965 108.661 77.7556L91.5186 95.3556C90.6817 96.2148 89.325 96.2148 88.4881 95.3556L79.9167 86.5556C79.0799 85.6965 79.0799 84.3035 79.9167 83.4444C80.7535 82.5852 82.1103 82.5852 82.9471 83.4444L90.0033 90.6887L105.631 74.6444C106.468 73.7852 107.825 73.7852 108.661 74.6444Z" fill="white"/>
</g>
<defs>
<filter id="filter0_d_2459_77492" x="34.2891" y="29" width="120" height="120" filterUnits="userSpaceOnUse" color-interpolation-filters="sRGB">
<feFlood flood-opacity="0" result="BackgroundImageFix"/>
<feColorMatrix in="SourceAlpha" type="matrix" values="0 0 0 0 0 0 0 0 0 0 0 0 0 0 0 0 0 0 127 0" result="hardAlpha"/>
<feOffset dy="4"/>
<feGaussianBlur stdDeviation="6"/>
<feComposite in2="hardAlpha" operator="out"/>
<feColorMatrix type="matrix" values="0 0 0 0 0 0 0 0 0 0 0 0 0 0 0 0 0 0 0.08 0"/>
<feBlend mode="normal" in2="BackgroundImageFix" result="effect1_dropShadow_2459_77492"/>
<feBlend mode="normal" in="SourceGraphic" in2="effect1_dropShadow_2459_77492" result="shape"/>
</filter>
</defs>
</svg>
