<svg width="449" height="66" viewBox="0 0 449 66" fill="none" xmlns="http://www.w3.org/2000/svg">
<path d="M85.166 45.3384H90.6897C91.4356 45.3384 92.0706 45.913 92.1311 46.6589C92.8367 54.5714 95.7699 58.1094 101.283 58.1094C106.112 58.1094 108.894 55.0855 108.894 50.9125C108.894 44.532 102.836 41.75 96.7879 38.3128C90.4881 34.795 84.1883 30.7027 84.1883 21.4596C84.1883 12.7003 90.1656 6.81372 99.4087 6.81372C109.267 6.81372 115.536 12.8817 116.705 24.5137C116.796 25.3705 116.121 26.1265 115.264 26.1265H110.033C109.317 26.1265 108.692 25.6023 108.601 24.8867C107.674 17.851 104.68 14.2626 99.58 14.2626C95.1651 14.2626 92.7057 16.964 92.7057 20.8044C92.7057 26.2877 97.6145 28.9891 103.098 32.013C109.892 35.6921 117.421 39.8651 117.421 50.096C117.421 59.3391 111.202 65.5583 101.546 65.5583C90.8812 65.5583 84.7931 59.0872 83.7347 46.9411C83.6641 46.0843 84.3193 45.3384 85.1862 45.3384H85.166Z" fill="#C49131"/>
<path d="M122.287 7.54077H128.224C129.031 7.54077 129.676 8.18587 129.676 8.99225V31.3491H146.045V8.99225C146.045 8.18587 146.69 7.54077 147.497 7.54077H153.434C154.24 7.54077 154.885 8.18587 154.885 8.99225V63.3623C154.885 64.1686 154.24 64.8137 153.434 64.8137H147.497C146.69 64.8137 146.045 64.1686 146.045 63.3623V38.8786H129.676V63.3623C129.676 64.1686 129.031 64.8137 128.224 64.8137H122.287C121.481 64.8137 120.836 64.1686 120.836 63.3623V8.99225C120.836 8.18587 121.481 7.54077 122.287 7.54077Z" fill="#C49131"/>
<path d="M173.855 8.99225C173.855 8.18587 174.501 7.54077 175.307 7.54077H186.949C200.698 7.54077 209.699 17.5197 209.699 36.2579C209.699 54.9961 200.536 64.8137 186.626 64.8137H175.317C174.511 64.8137 173.866 64.1686 173.866 63.3623V8.99225H173.855ZM182.695 15.151V57.2943H186.546C195.466 57.2943 200.778 50.6618 200.778 36.268C200.778 21.8741 195.456 15.161 186.546 15.161H182.695V15.151Z" fill="#003870"/>
<path d="M211.734 54.0989C211.734 47.1439 216.804 43.4648 224.253 40.0276C230.473 37.165 232.761 34.8769 232.761 31.601C232.761 28.3251 230.553 26.3595 227.197 26.3595C223.417 26.3595 220.957 29.0206 220.292 33.9496C220.191 34.6652 219.586 35.1995 218.861 35.1995H214.063C213.186 35.1995 212.5 34.4233 212.621 33.5565C213.69 25.2407 219.385 19.8984 227.529 19.8984C235.674 19.8984 241.026 24.646 241.026 33.1533V63.3723C241.026 64.1786 240.381 64.8238 239.575 64.8238H234.212C233.406 64.8238 232.761 64.1786 232.761 63.3723V60.7314C230.473 63.594 227.035 65.3983 223.185 65.3983C216.23 65.3983 211.734 60.9027 211.734 54.109V54.0989ZM225.725 59.0884C228.507 59.0884 231.208 57.6974 232.761 55.4899V40.9247C231.612 42.1545 229.979 43.1322 227.691 44.3619C223.024 46.9826 220.08 49.1901 220.08 53.3631C220.08 56.8809 222.449 59.0884 225.725 59.0884Z" fill="#003870"/>
<path d="M250.11 56.6396V27.4286H244.284C243.477 27.4286 242.832 26.7835 242.832 25.9771V22.2476C242.832 21.4412 243.477 20.7961 244.284 20.7961H250.11V13.9822C250.11 13.1759 250.755 12.5308 251.561 12.5308H257.085C257.891 12.5308 258.536 13.1759 258.536 13.9822V20.7961H265.925C266.731 20.7961 267.376 21.4412 267.376 22.2476V25.9771C267.376 26.7835 266.731 27.4286 265.925 27.4286H258.536V54.6741C258.536 57.1234 259.605 58.1919 262.387 58.1919H265.925C266.731 58.1919 267.376 58.837 267.376 59.6434V63.3729C267.376 64.1792 266.731 64.8244 265.925 64.8244H258.214C252.811 64.8244 250.11 61.8004 250.11 56.6396Z" fill="#003870"/>
<path d="M269.331 54.0989C269.331 47.1439 274.401 43.4648 281.85 40.0276C288.069 37.165 290.357 34.8769 290.357 31.601C290.357 28.3251 288.15 26.3595 284.793 26.3595C281.013 26.3595 278.554 29.0206 277.889 33.9496C277.788 34.6652 277.183 35.1995 276.457 35.1995H271.659C270.783 35.1995 270.097 34.4233 270.218 33.5565C271.286 25.2407 276.982 19.8984 285.126 19.8984C293.27 19.8984 298.623 24.646 298.623 33.1533V63.3723C298.623 64.1786 297.978 64.8238 297.171 64.8238H291.809C291.002 64.8238 290.357 64.1786 290.357 63.3723V60.7314C288.069 63.594 284.632 65.3983 280.782 65.3983C273.827 65.3983 269.331 60.9027 269.331 54.109V54.0989ZM283.322 59.0884C286.104 59.0884 288.805 57.6974 290.357 55.4899V40.9247C289.208 42.1545 287.575 43.1322 285.287 44.3619C280.62 46.9826 277.677 49.1901 277.677 53.3631C277.677 56.8809 280.046 59.0884 283.322 59.0884Z" fill="#003870"/>
<path d="M318.895 7.54077H324.831C325.638 7.54077 326.283 8.18587 326.283 8.99225V57.2943H346.11C346.916 57.2943 347.561 57.9394 347.561 58.7458V63.3723C347.561 64.1787 346.916 64.8238 346.11 64.8238H318.905C318.098 64.8238 317.453 64.1787 317.453 63.3723V8.99225C317.453 8.18587 318.098 7.54077 318.905 7.54077H318.895Z" fill="#003870"/>
<path d="M349.679 54.0989C349.679 47.1439 354.749 43.4648 362.198 40.0276C368.417 37.165 370.705 34.8769 370.705 31.601C370.705 28.3251 368.498 26.3595 365.141 26.3595C361.361 26.3595 358.902 29.0206 358.236 33.9496C358.136 34.6652 357.531 35.1995 356.805 35.1995H352.007C351.13 35.1995 350.445 34.4233 350.566 33.5565C351.634 25.2407 357.329 19.8984 365.474 19.8984C373.618 19.8984 378.97 24.646 378.97 33.1533V63.3723C378.97 64.1786 378.325 64.8238 377.519 64.8238H372.156C371.35 64.8238 370.705 64.1786 370.705 63.3723V60.7314C368.417 63.594 364.98 65.3983 361.129 65.3983C354.174 65.3983 349.679 60.9027 349.679 54.109V54.0989ZM363.669 59.0884C366.451 59.0884 369.153 57.6974 370.705 55.4899V40.9247C369.556 42.1545 367.923 43.1322 365.635 44.3619C360.968 46.9826 358.025 49.1901 358.025 53.3631C358.025 56.8809 360.393 59.0884 363.669 59.0884Z" fill="#003870"/>
<path d="M384.674 7.54077H390.278C391.085 7.54077 391.73 8.18587 391.73 8.99225V26.6015C394.018 22.3479 397.455 20.0598 401.8 20.0598C410.639 20.0598 416.203 28.1639 416.203 42.8097C416.203 57.4555 410.559 65.5596 401.8 65.5596C397.465 65.5596 393.947 63.2715 391.649 58.9272L391.71 63.3421C391.72 64.1485 391.065 64.8137 390.258 64.8137H384.674C383.868 64.8137 383.223 64.1686 383.223 63.3623V8.99225C383.223 8.18587 383.868 7.54077 384.674 7.54077ZM407.686 42.8903C407.686 31.7623 404.823 26.6116 399.743 26.6116C394.663 26.6116 391.72 31.7623 391.72 42.8097C391.72 53.8571 394.663 59.0885 399.743 59.0885C404.823 59.0885 407.686 53.9377 407.686 42.8903Z" fill="#003870"/>
<path d="M420.235 49.1901H424.962C425.678 49.1901 426.303 49.7142 426.394 50.4299C427.19 56.4475 429.901 59.2497 434.115 59.2497C437.965 59.2497 440.173 57.0422 440.173 53.7663C440.173 49.3514 435.919 47.4665 431.252 45.4203C425.607 42.8802 419.308 40.0176 419.308 31.9235C419.308 25.2104 424.216 19.8984 432.562 19.8984C440.908 19.8984 446.382 24.898 447.531 33.4657C447.652 34.3427 446.966 35.1188 446.089 35.1188H441.523C440.818 35.1188 440.213 34.6047 440.092 33.9092C439.205 28.4964 436.463 26.289 432.724 26.289C429.367 26.289 427.24 28.4158 427.24 31.1172C427.24 34.8769 430.919 36.6812 435.173 38.5661C441.06 41.1868 448.186 44.1301 448.186 52.97C448.186 59.925 442.945 65.7309 434.276 65.7309C425.607 65.7309 419.922 60.9229 418.783 50.8331C418.683 49.9662 419.358 49.2103 420.235 49.2103V49.1901Z" fill="#003870"/>
<path d="M39.6941 7.54077H34.3821C33.5051 7.54077 32.8298 8.31691 32.9407 9.18377L34.634 21.7935C34.7348 22.5092 35.3497 23.0535 36.0754 23.0535H41.1355C42.0023 23.0535 42.6777 22.2975 42.5769 21.4407L41.1355 8.83098C41.0548 8.09516 40.4299 7.54077 39.6941 7.54077Z" fill="#47BFE0"/>
<path d="M76.1524 7.54077C75.4166 7.54077 74.7917 8.09516 74.711 8.83098L72.1608 31.1072L69.6208 54.6735L66.1029 31.1072L62.696 8.7705C62.5851 8.06492 61.9803 7.54077 61.2647 7.54077H54.5919C53.8762 7.54077 53.2715 8.06492 53.1606 8.7705L49.673 31.1072L46.2358 54.2603L43.6957 31.1072L43.5949 30.2101C43.5143 29.4742 42.8893 28.9199 42.1535 28.9199H37.2649C36.3879 28.9199 35.7126 29.696 35.8235 30.5629L40.2585 63.5538C40.3593 64.2694 40.9742 64.8137 41.6999 64.8137H49.7436C50.4592 64.8137 51.064 64.2896 51.1749 63.584L54.5818 41.9832L57.7771 19.072L60.8816 41.9832L64.2886 63.584C64.3995 64.2896 65.0042 64.8137 65.7199 64.8137H73.7635C74.4893 64.8137 75.1041 64.2795 75.2049 63.5538L82.5026 9.18377C82.6236 8.31691 81.9382 7.54077 81.0612 7.54077H76.1625H76.1524Z" fill="#C49131"/>
<path d="M21.2893 1.72429L21.8033 5.56467C21.9041 6.29041 22.519 6.82463 23.2447 6.82463H27.0448C27.9217 6.82463 28.5971 6.04849 28.4862 5.18164L27.9721 1.34126C27.8713 0.615524 27.2565 0.0812988 26.5307 0.0812988H22.7307C21.8537 0.0812988 21.1784 0.857437 21.2893 1.72429Z" fill="#398B7F"/>
<path d="M26.7115 32.7803H30.5115C31.3885 32.7803 32.0638 32.0041 31.9529 31.1373L29.6548 13.9514C29.554 13.2256 28.9391 12.6914 28.2134 12.6914H24.4133C23.5364 12.6914 22.861 13.4675 22.9719 14.3344L25.2701 31.5203C25.3709 32.2461 25.9857 32.7803 26.7115 32.7803Z" fill="#387ABD"/>
<path d="M28.4855 46.0244H32.2856C33.1625 46.0244 33.8379 45.2482 33.727 44.3814L33.1323 39.906C33.0315 39.1802 32.4166 38.646 31.6909 38.646H27.8908C27.0139 38.646 26.3386 39.4221 26.4494 40.289L27.0441 44.7644C27.1449 45.4901 27.7598 46.0244 28.4855 46.0244Z" fill="#C49131"/>
<path d="M19.7895 32.4473H15.9895C15.1125 32.4473 14.4372 33.2234 14.5481 34.0903L16.3423 47.466C16.4431 48.1918 17.0579 48.726 17.7837 48.726H21.5837C22.4607 48.726 23.136 47.9499 23.0251 47.083L21.2309 33.7072C21.1301 32.9815 20.5153 32.4473 19.7895 32.4473Z" fill="#003870"/>
<path d="M20.0578 24.9371L18.3745 12.3576C18.2737 11.6319 17.6588 11.0977 16.9331 11.0977H13.133C12.2561 11.0977 11.5808 11.8738 11.6916 12.7407L13.3749 25.3201C13.4757 26.0459 14.0906 26.5801 14.8163 26.5801H18.6164C19.4933 26.5801 20.1687 25.804 20.0578 24.9371Z" fill="#C49131"/>
<path d="M8.98132 22.4292L8.46726 18.5888C8.36646 17.8631 7.7516 17.3289 7.02586 17.3289H3.2258C2.34887 17.3289 1.67352 18.105 1.7844 18.9719L2.29847 22.8122C2.39926 23.538 3.01413 24.0722 3.73987 24.0722H7.53992C8.41686 24.0722 9.0922 23.2961 8.98132 22.4292Z" fill="#398B7F"/>
<path d="M7.20691 9.62646L6.69284 5.78609C6.59204 5.06035 5.97718 4.52612 5.25144 4.52612H1.45139C0.574452 4.52612 -0.100889 5.30226 0.00998772 6.16912L0.524053 10.0095C0.624851 10.7352 1.23971 11.2695 1.96545 11.2695H5.76551C6.64244 11.2695 7.31778 10.4933 7.20691 9.62646Z" fill="#47BFE0"/>
</svg>
