<?xml version="1.0" encoding="UTF-8"?>
<!DOCTYPE svg PUBLIC "-//W3C//DTD SVG 1.1//EN" "http://www.w3.org/Graphics/SVG/1.1/DTD/svg11.dtd">
<!-- Creator: CorelDRAW 2021 (64-Bit) -->
<svg xmlns="http://www.w3.org/2000/svg" xml:space="preserve" width="254mm" height="169.333mm" version="1.1" style="shape-rendering:geometricPrecision; text-rendering:geometricPrecision; image-rendering:optimizeQuality; fill-rule:evenodd; clip-rule:evenodd"
viewBox="0 0 25400 16933.32"
 xmlns:xlink="http://www.w3.org/1999/xlink"
 xmlns:xodm="http://www.corel.com/coreldraw/odm/2003">
 <defs>
  <style type="text/css">
   <![CDATA[
    .fil0 {fill:#19447B}
   ]]>
  </style>
 </defs>
 <g id="Layer_x0020_1">
  <metadata id="CorelCorpID_0Corel-Layer"/>
  <g id="_2034723045328">
   <path class="fil0" d="M2656.82 9245.83c-28.6,-6.66 -60.21,-15.51 -60.21,-50.17l0 -2177.08c0,-28.35 23.04,-38.71 40.16,-50.15 28.57,6.65 60.18,15.51 60.18,50.15l0 2157.02c0,36.37 -13.04,47.3 -34.47,65.87 -1.09,0.94 -3.86,2.79 -5.66,4.36zm140.44 -250.83l0 -2006.52c0,-27.11 4.81,-27.67 10.04,-50.17 29.96,-2.48 80.27,-16.71 80.27,30.12l0 2026.57c0,54.43 -90.31,54.43 -90.31,0zm682.23 -160.53c0,-114.06 -22.16,-230.74 60.21,-230.74 64.47,0 40.12,134.29 40.12,270.88 0,48.93 -100.33,77.78 -100.33,-40.14zm-491.58 10.04l0 -1866.07c0,-61.13 60.65,-47.04 90.27,-40.13 5.26,22.5 10.04,23.06 10.04,50.17l0 1845.99c0,27.11 -4.78,27.69 -10.04,50.17 -36.27,8.7 -90.27,17.55 -90.27,-40.13zm-591.95 -130.42l0 -1795.83c0,-92.01 100.34,-86.11 100.34,-30.12l0 1846.02c0,49.32 -100.34,69.28 -100.34,-20.07zm882.87 -150.49c-12.28,2.86 -90.27,32.6 -90.27,-30.09 0,-187.8 -15.15,-1115.9 10.02,-1223.98 36.29,-8.69 90.29,-17.55 90.29,40.13 0,141.89 12.53,1163.48 -10.04,1213.94zm110.38 -541.75l0 -411.35c0,-54.43 90.28,-54.43 90.28,0l0 411.35c0,54.43 -90.28,54.43 -90.28,0zm-1183.86 0l0 -1244.06c0,-48.09 90.3,-58.6 90.3,0l0 1244.06c0,51.23 -90.3,51.23 -90.3,0zm-381.23 -150.49l0 -1043.4c0,-57.81 80.25,-45.74 80.25,0l0 1043.4c0,43.42 -80.25,43.42 -80.25,0zm1755.7 -10.03c0,-49.18 -9.44,-204.73 10.14,-240.7l30 -30.18c84.43,19.67 60.19,51.46 60.19,260.83 0,27.12 -4.79,27.68 -10.04,50.17 -36.28,8.69 -90.29,17.53 -90.29,-40.12zm-1575.13 -40.14c0,-173.33 -14.63,-967.56 10.04,-1073.49 64.33,-15.41 19.39,-14.18 80.26,0 24.69,105.93 10.04,900.16 10.04,1073.49 0,64.07 -100.34,64.07 -100.34,0zm-351.14 50.17c-23.48,0 -40.13,-16.65 -40.13,-40.13l0 -822.69c0,-62.69 78.02,-32.96 90.3,-30.1 23.98,102.99 10.04,663.88 10.04,812.66 0,51.26 -7.48,80.26 -60.21,80.26zm-240.79 -200.65l0 -441.44c0,-83.32 100.32,-83.32 100.32,0l0 441.44c0,64.06 -100.32,64.06 -100.32,0zm-351.13 -1304.26l0 3330.85c0,23.11 6.98,30.09 30.09,30.09l1364.45 0c589.31,0 1093.81,-311.13 1370.24,-696.47 176.48,-246.07 325.27,-594.08 325.27,-928.81 0,-307.65 -31.45,-537.07 -160.48,-792.63 -73.28,-145.14 -129.3,-244.71 -233.76,-368.21l-153.32 -157.68c-48.01,-37.12 -79.63,-76.07 -164.79,-136.18 -238.27,-168.25 -597.2,-311.06 -922.98,-311.06l-1424.63 0c-23.11,0 -30.09,6.99 -30.09,30.1z"/>
   <path class="fil0" d="M12368.43 7580.41c25.92,18.99 60.32,134.14 77.32,173.5l243.72 538.82 -622.02 0c6.9,-29.65 20.63,-53.4 34.31,-86.07 15.22,-36.32 24.22,-51.78 40.16,-90.3 24.67,-59.69 53.14,-112.08 78.91,-171.91 31.2,-72.5 142.86,-307.01 147.6,-364.04zm-1494.86 1976.42l622.01 0 302.37 -670.79c9.49,-23.72 25.68,-81.66 58.81,-81.66l1033.37 0c29.4,0 25.66,11.85 52.98,77.45 16.15,38.83 27.58,59.99 43.09,97.35l168.19 383.6c29.43,66.2 55.36,134.51 86.87,194.05l632.05 0 -277.6 -595.21c-108,-233.05 -263.49,-590.27 -374.48,-809.39 -18.51,-36.56 -29.38,-61.2 -47.3,-103.2l-748.54 -1609.12c-17.88,-35.72 -37.91,-64.82 -46.93,-103.56l-20.07 0c-14.26,61.18 -60.43,140.38 -87.39,203.57l-1216.71 2605.7c-28.7,64.52 -177.26,369.63 -180.72,411.21z"/>
   <path class="fil0" d="M18699.02 9125.43l-70.22 0c-269.62,0 -421.36,-230.89 -421.36,-501.62 0,-170.89 1.64,-339.83 108.6,-473.28 173.2,-216.1 533.33,-212.73 695.75,-10.04 212.96,265.81 130.66,984.94 -312.77,984.94zm-150.48 511.66c178.45,0 377.45,-61.11 508.7,-173.5 23.18,-19.86 28.32,-30.61 53.13,-47.21l0 1023.33 551.79 0 0 -2889.4 -551.79 0 0 150.49c-23.42,-15.68 -26.66,-23.51 -47.8,-42.5 -17.28,-15.53 -36.37,-28.88 -56.66,-43.66 -36.17,-26.3 -86.06,-52.58 -130.36,-70.29 -575.37,-230.23 -1140.56,141.4 -1230.6,787.87 -5.9,42.38 -9.41,58 -9.29,111.11 0.17,56.23 -12.26,75.26 -9.92,119.42 14.75,278.45 61.07,532.85 236.19,757.68 164.31,210.95 415.83,316.66 686.61,316.66z"/>
   <path class="fil0" d="M5435.86 8082.03c135.99,0 269.67,-5.97 378.6,82.91 50.38,41.13 116.39,128.2 123.05,208.04l-872.85 0c17.83,-76.61 74.99,-159.62 128.67,-202.41 51.87,-41.31 152.44,-88.54 242.53,-88.54zm-993.23 561.83c0,190.09 23.44,313.23 76.3,465.45 30.81,88.64 81.47,173.75 134.23,247.03 17.63,24.49 37.71,45.01 58.85,71.58 52.35,65.79 215.6,181.54 296.59,215.07 465.66,192.86 1021.43,107.72 1353.44,-303.72 44.28,-54.86 140.92,-183.44 157.35,-253.97 -49.9,-11.62 -274.97,-151.36 -351.09,-190.69 -37.62,-19.41 -79.67,-50.62 -120.44,-60.14 -139,262.69 -225.07,351.76 -534.84,388.98 -125.94,15.13 -277.72,-40.58 -366.74,-139.5 -66.98,-74.43 -121.74,-193.6 -121.74,-299.62l1494.85 0c0,-310.86 -7.08,-591.29 -209.29,-844.15 -94.83,-118.54 -208.5,-213.33 -353.82,-268.19 -301.53,-113.84 -628.69,-112.01 -927.72,12.78 -53.93,22.52 -109.76,63.07 -156.67,94.14 -77.22,51.16 -137.53,114.82 -195.39,185.85 -21.33,26.19 -36.77,47.3 -55.43,75.01 -112.27,166.73 -178.44,380.64 -178.44,604.09z"/>
   <path class="fil0" d="M23434.44 7971.68c126.92,0 225.01,11.06 321.35,79.98 53.79,38.47 123.16,127.34 130.12,210.97l-872.83 0c88.71,-184.91 179.01,-290.95 421.36,-290.95zm-1043.38 581.88c0,68.31 11.48,173.5 22.77,238.09 35.66,204.23 121.81,390.86 260.49,542.1 26.04,28.42 40.62,38.01 69.27,61.16 298.41,241.19 711.68,304.1 1065.97,185.9 235.22,-78.51 344.79,-166.3 499.96,-342.75 38,-43.19 153.21,-202.1 158.27,-263.11 -37.26,-8.69 -291.87,-151.67 -353.08,-188.68 -28.88,-17.47 -87.83,-55.02 -118.45,-62.15 -9.8,42.12 -57.34,118.1 -80.19,150.58 -124.15,176.57 -256.4,240.69 -501.69,240.69 -71.39,0 -132.77,-16.05 -180.89,-39.82 -24.19,-11.96 -49.31,-22.42 -71.52,-38.83 -99.84,-73.73 -189.03,-216.97 -189.03,-362.76l1494.85 0c0,-338.16 0.74,-587.33 -223,-860.53 -100.53,-122.74 -212.94,-198.01 -363,-259.02 -250.09,-101.71 -630.61,-95.24 -872.22,12.46 -310.66,138.5 -526.67,406.44 -591.12,743.21 -11.01,57.44 -27.39,173.43 -27.39,243.46z"/>
   <path class="fil0" d="M20123.65 8523.47c0,737.32 284.78,1113.62 973.19,1113.62 261.59,0 541.77,-64.89 725,-248.14 165.4,-165.41 248.17,-482.38 248.17,-725.02l0 -1113.62 -551.81 0 0 1173.81c0,286.91 -141.68,401.31 -421.36,401.31 -395.04,0 -421.39,-230.41 -421.39,-571.87l0 -1003.25 -551.8 0 0 973.16z"/>
   <path class="fil0" d="M14013.78 7088.8l0 461.51 -331.08 0 0 471.54c0,23.1 6.99,30.09 30.09,30.09l300.99 0 0 1504.89 551.8 0 0 -1504.89 431.4 0c23.11,0 30.09,-6.99 30.09,-30.09l0 -471.54 -461.49 0 0 -341.12c0,-348.86 57.58,-401.3 270.87,-401.3 41.17,0 92.77,21.02 124.07,36.46 40.79,20.15 60.86,43.15 106.68,53.83l0 -531.73c-124.67,-29.04 -221.75,-54.58 -323.51,-60.19l-81.87 0c-76.19,4.31 -159.17,21.03 -260.74,56.23 -283.33,98.19 -387.3,407.72 -387.3,726.31z"/>
   <path class="fil0" d="M7562.79 9737.43c32.15,-23.58 116.63,-213.2 140.45,-260.86l545.12 -1100.25c53.1,-106.21 396.47,-776.62 407.98,-826.01l-611.98 0c-3.05,36.67 -37.66,102 -52.96,137.68 -21.76,50.78 -38.64,90.2 -60.18,140.45l-331.95 771.67c-13.18,39.11 -8.21,43.09 -36.48,63.82 -6.08,-72.96 -78.51,-215.61 -107.58,-283.7 -32.41,-75.83 -350.43,-788.03 -353.94,-829.92l-611.97 0c12.59,54.13 101.48,213.01 130.4,270.88l267.55 545.11c127.73,255.42 294.73,571.71 404.78,819.2 44.75,100.64 256.7,491.58 270.76,551.93z"/>
   <path class="fil0" d="M15759.47 7660.66c0,-159.55 78.81,-120.38 -531.74,-120.38 -23.11,0 -30.1,6.98 -30.1,30.09l0 1956.37c0,23.11 6.99,30.09 30.1,30.09l501.64 0c49.13,0 30.1,-102.4 30.1,-200.65l0 -722.36c0,-293.35 25.26,-652.11 311,-652.11 78.42,0 134.76,-3.6 207.59,33.2 41.53,20.97 70.39,55.64 113.46,67.12l200.65 -481.57c-193.5,-102.37 -441.39,-172.88 -669.13,-67.17 -82.89,38.48 -103.65,87.25 -163.57,127.37z"/>
   <polygon class="fil0" points="16722.6,9556.83 17274.39,9556.83 17274.39,7550.31 16722.6,7550.31 "/>
   <path class="fil0" d="M8887.11 8673.98l1705.54 0c23.11,0 30.1,-7.01 30.1,-30.12l0 -521.7 -1735.64 0 0 551.82z"/>
   <path class="fil0" d="M16662.4 6797.87c0,173.4 152.87,331.06 341.12,331.06 166.18,0 321.04,-146.13 321.04,-311.01 0,-104.2 -10.65,-177 -92.4,-258.76 -202.32,-202.33 -569.76,-59.33 -569.76,238.71z"/>
  </g>
 </g>
</svg>
