<svg width="205" height="30" viewBox="0 0 205 30" fill="none" xmlns="http://www.w3.org/2000/svg">
<path d="M38.9201 20.6813H41.4443C41.7852 20.6813 42.0754 20.9439 42.103 21.2847C42.4254 24.9006 43.7658 26.5174 46.2854 26.5174C48.4918 26.5174 49.7631 25.1355 49.7631 23.2285C49.7631 20.3128 46.9948 19.0415 44.2311 17.4708C41.3522 15.8633 38.4733 13.9931 38.4733 9.76927C38.4733 5.76649 41.2048 3.07648 45.4287 3.07648C49.9335 3.07648 52.7986 5.8494 53.3329 11.1649C53.3743 11.5565 53.0657 11.9019 52.6742 11.9019H50.2836C49.9566 11.9019 49.671 11.6624 49.6295 11.3354C49.2057 8.12025 47.8377 6.48045 45.507 6.48045C43.4895 6.48045 42.3656 7.71491 42.3656 9.46987C42.3656 11.9756 44.6088 13.2101 47.1145 14.5919C50.2191 16.2732 53.6599 18.1802 53.6599 22.8554C53.6599 27.0793 50.8179 29.9213 46.4052 29.9213C41.5318 29.9213 38.7497 26.9642 38.2661 21.4137C38.2338 21.0222 38.5332 20.6813 38.9293 20.6813H38.9201Z" fill="white"/>
<path d="M55.885 3.40857H58.598C58.9665 3.40857 59.2613 3.70337 59.2613 4.07186V14.2884H66.7418V4.07186C66.7418 3.70337 67.0366 3.40857 67.405 3.40857H70.1181C70.4866 3.40857 70.7814 3.70337 70.7814 4.07186V28.9176C70.7814 29.2861 70.4866 29.5809 70.1181 29.5809H67.405C67.0366 29.5809 66.7418 29.2861 66.7418 28.9176V17.7292H59.2613V28.9176C59.2613 29.2861 58.9665 29.5809 58.598 29.5809H55.885C55.5165 29.5809 55.2217 29.2861 55.2217 28.9176V4.07186C55.2217 3.70337 55.5165 3.40857 55.885 3.40857Z" fill="white"/>
<path d="M79.4502 4.07186C79.4502 3.70337 79.745 3.40857 80.1135 3.40857H85.4336C91.7165 3.40857 95.8298 7.9687 95.8298 16.5316C95.8298 25.0945 91.6428 29.5809 85.2862 29.5809H80.1181C79.7496 29.5809 79.4548 29.2861 79.4548 28.9176V4.07186H79.4502ZM83.4898 6.88624V26.1447H85.2494C89.3259 26.1447 91.7533 23.1138 91.7533 16.5362C91.7533 9.95857 89.3213 6.89085 85.2494 6.89085H83.4898V6.88624Z" fill="white"/>
<path d="M96.7598 24.6846C96.7598 21.5064 99.0767 19.8251 102.481 18.2544C105.323 16.9462 106.368 15.9006 106.368 14.4036C106.368 12.9066 105.36 12.0084 103.826 12.0084C102.098 12.0084 100.974 13.2244 100.67 15.4769C100.624 15.8039 100.348 16.048 100.016 16.048H97.8238C97.4231 16.048 97.1098 15.6934 97.1651 15.2972C97.6534 11.4971 100.256 9.05585 103.978 9.05585C107.699 9.05585 110.145 11.2254 110.145 15.113V28.9223C110.145 29.2908 109.851 29.5856 109.482 29.5856H107.032C106.663 29.5856 106.368 29.2908 106.368 28.9223V27.7155C105.323 29.0237 103.752 29.8482 101.992 29.8482C98.8141 29.8482 96.7598 27.7938 96.7598 24.6892V24.6846ZM103.153 26.9647C104.424 26.9647 105.659 26.3291 106.368 25.3203V18.6644C105.843 19.2263 105.097 19.6731 104.051 20.2351C101.919 21.4327 100.574 22.4414 100.574 24.3484C100.574 25.9559 101.656 26.9647 103.153 26.9647Z" fill="white"/>
<path d="M114.294 25.8457V12.497H111.632C111.264 12.497 110.969 12.2022 110.969 11.8337V10.1294C110.969 9.7609 111.264 9.4661 111.632 9.4661H114.294V6.35232C114.294 5.98382 114.589 5.68903 114.958 5.68903H117.482C117.85 5.68903 118.145 5.98382 118.145 6.35232V9.4661H121.522C121.89 9.4661 122.185 9.7609 122.185 10.1294V11.8337C122.185 12.2022 121.89 12.497 121.522 12.497H118.145V24.9475C118.145 26.0668 118.633 26.5551 119.905 26.5551H121.522C121.89 26.5551 122.185 26.8498 122.185 27.2183V28.9226C122.185 29.2911 121.89 29.5859 121.522 29.5859H117.998C115.529 29.5859 114.294 28.2041 114.294 25.8457Z" fill="white"/>
<path d="M123.08 24.6846C123.08 21.5064 125.397 19.8251 128.801 18.2544C131.643 16.9462 132.689 15.9006 132.689 14.4036C132.689 12.9066 131.68 12.0084 130.146 12.0084C128.419 12.0084 127.295 13.2244 126.991 15.4769C126.945 15.8039 126.668 16.048 126.337 16.048H124.144C123.743 16.048 123.43 15.6934 123.485 15.2972C123.974 11.4971 126.576 9.05585 130.298 9.05585C134.02 9.05585 136.466 11.2254 136.466 15.113V28.9223C136.466 29.2908 136.171 29.5856 135.802 29.5856H133.352C132.983 29.5856 132.689 29.2908 132.689 28.9223V27.7155C131.643 29.0237 130.072 29.8482 128.313 29.8482C125.134 29.8482 123.08 27.7938 123.08 24.6892V24.6846ZM129.473 26.9647C130.745 26.9647 131.979 26.3291 132.689 25.3203V18.6644C132.163 19.2263 131.417 19.6731 130.372 20.2351C128.239 21.4327 126.894 22.4414 126.894 24.3484C126.894 25.9559 127.976 26.9647 129.473 26.9647Z" fill="white"/>
<path d="M145.728 3.40857H148.441C148.81 3.40857 149.104 3.70337 149.104 4.07186V26.1447H158.165C158.533 26.1447 158.828 26.4395 158.828 26.808V28.9222C158.828 29.2907 158.533 29.5855 158.165 29.5855H145.733C145.364 29.5855 145.069 29.2907 145.069 28.9222V4.07186C145.069 3.70337 145.364 3.40857 145.733 3.40857H145.728Z" fill="white"/>
<path d="M159.796 24.6846C159.796 21.5064 162.113 19.8251 165.517 18.2544C168.359 16.9462 169.404 15.9006 169.404 14.4036C169.404 12.9066 168.396 12.0084 166.862 12.0084C165.134 12.0084 164.011 13.2244 163.707 15.4769C163.66 15.8039 163.384 16.048 163.052 16.048H160.86C160.459 16.048 160.146 15.6934 160.201 15.2972C160.69 11.4971 163.292 9.05585 167.014 9.05585C170.736 9.05585 173.181 11.2254 173.181 15.113V28.9223C173.181 29.2908 172.887 29.5856 172.518 29.5856H170.068C169.699 29.5856 169.404 29.2908 169.404 28.9223V27.7155C168.359 29.0237 166.788 29.8482 165.029 29.8482C161.85 29.8482 159.796 27.7938 159.796 24.6892V24.6846ZM166.189 26.9647C167.461 26.9647 168.695 26.3291 169.404 25.3203V18.6644C168.879 19.2263 168.133 19.6731 167.087 20.2351C164.955 21.4327 163.61 22.4414 163.61 24.3484C163.61 25.9559 164.692 26.9647 166.189 26.9647Z" fill="white"/>
<path d="M175.788 3.40857H178.349C178.718 3.40857 179.013 3.70337 179.013 4.07186V12.1189C180.058 10.1751 181.629 9.12945 183.614 9.12945C187.654 9.12945 190.196 12.8328 190.196 19.5256C190.196 26.2184 187.617 29.9218 183.614 29.9218C181.634 29.9218 180.026 28.8762 178.976 26.8909L179.003 28.9084C179.008 29.2769 178.709 29.5809 178.34 29.5809H175.788C175.42 29.5809 175.125 29.2861 175.125 28.9176V4.07186C175.125 3.70337 175.42 3.40857 175.788 3.40857ZM186.304 19.5625C186.304 14.4772 184.996 12.1235 182.675 12.1235C180.353 12.1235 179.008 14.4772 179.008 19.5256C179.008 24.574 180.353 26.9646 182.675 26.9646C184.996 26.9646 186.304 24.6108 186.304 19.5625Z" fill="white"/>
<path d="M192.037 22.4414H194.197C194.524 22.4414 194.81 22.681 194.851 23.008C195.215 25.7579 196.454 27.0384 198.38 27.0384C200.139 27.0384 201.148 26.0296 201.148 24.5326C201.148 22.5151 199.204 21.6538 197.072 20.7187C194.492 19.558 191.613 18.2498 191.613 14.551C191.613 11.4833 193.856 9.05585 197.67 9.05585C201.484 9.05585 203.985 11.3405 204.511 15.2558C204.566 15.6565 204.253 16.0112 203.852 16.0112H201.765C201.443 16.0112 201.166 15.7763 201.111 15.4584C200.706 12.9849 199.453 11.9762 197.744 11.9762C196.21 11.9762 195.238 12.9481 195.238 14.1825C195.238 15.9006 196.92 16.7251 198.863 17.5865C201.553 18.7841 204.81 20.1291 204.81 24.1687C204.81 27.347 202.415 30.0002 198.453 30.0002C194.492 30.0002 191.894 27.803 191.374 23.1922C191.328 22.7961 191.636 22.4506 192.037 22.4506V22.4414Z" fill="white"/>
<path d="M18.1404 3.40857H15.713C15.3122 3.40857 15.0036 3.76325 15.0543 4.15938L15.8281 9.92172C15.8742 10.2488 16.1552 10.4975 16.4868 10.4975H18.7991C19.1952 10.4975 19.5039 10.152 19.4578 9.7605L18.7991 3.99816C18.7623 3.66191 18.4767 3.40857 18.1404 3.40857Z" fill="white"/>
<path d="M34.802 3.40857C34.4657 3.40857 34.1802 3.66191 34.1433 3.99816L32.9779 14.1778L31.8172 24.9471L30.2096 14.1778L28.6527 3.97052C28.6021 3.64809 28.3257 3.40857 27.9987 3.40857H24.9494C24.6223 3.40857 24.346 3.64809 24.2953 3.97052L22.7015 14.1778L21.1308 24.7582L19.9701 14.1778L19.924 13.7679C19.8872 13.4316 19.6016 13.1783 19.2653 13.1783H17.0313C16.6306 13.1783 16.322 13.533 16.3726 13.9291L18.3994 29.0052C18.4454 29.3322 18.7264 29.5809 19.0581 29.5809H22.7338C23.0608 29.5809 23.3372 29.3414 23.3879 29.019L24.9448 19.1479L26.4049 8.67805L27.8236 19.1479L29.3805 29.019C29.4312 29.3414 29.7076 29.5809 30.0346 29.5809H33.7103C34.042 29.5809 34.323 29.3368 34.369 29.0052L37.7039 4.15938C37.7592 3.76325 37.4459 3.40857 37.0452 3.40857H34.8066H34.802Z" fill="white"/>
<path d="M9.72909 0.75087L9.964 2.50583C10.0101 2.83747 10.291 3.0816 10.6227 3.0816H12.3592C12.76 3.0816 13.0686 2.72692 13.0179 2.33079L12.783 0.575834C12.7369 0.244189 12.456 6.10352e-05 12.1243 6.10352e-05H10.3878C9.98704 6.10352e-05 9.67842 0.354737 9.72909 0.75087Z" fill="white"/>
<path d="M12.2085 14.9427H13.945C14.3458 14.9427 14.6544 14.588 14.6037 14.1919L13.5535 6.33835C13.5074 6.0067 13.2265 5.76257 12.8948 5.76257H11.1583C10.7575 5.76257 10.4489 6.11725 10.4996 6.51338L11.5498 14.3669C11.5959 14.6986 11.8768 14.9427 12.2085 14.9427Z" fill="white"/>
<path d="M13.0199 20.9948H14.7564C15.1572 20.9948 15.4658 20.6402 15.4151 20.244L15.1433 18.1989C15.0973 17.8672 14.8163 17.6231 14.4847 17.6231H12.7481C12.3474 17.6231 12.0388 17.9778 12.0894 18.3739L12.3612 20.4191C12.4073 20.7507 12.6882 20.9948 13.0199 20.9948Z" fill="white"/>
<path d="M9.04423 14.7905H7.3077C6.90696 14.7905 6.59834 15.1452 6.64901 15.5413L7.46891 21.6537C7.51497 21.9854 7.79595 22.2295 8.1276 22.2295H9.86413C10.2649 22.2295 10.5735 21.8748 10.5228 21.4787L9.70291 15.3663C9.65685 15.0347 9.37587 14.7905 9.04423 14.7905Z" fill="white"/>
<path d="M9.16746 11.3587L8.39823 5.61014C8.35216 5.27849 8.07119 5.03436 7.73954 5.03436H6.00301C5.60227 5.03436 5.29366 5.38904 5.34432 5.78517L6.11356 11.5337C6.15962 11.8653 6.4406 12.1095 6.77224 12.1095H8.50877C8.90951 12.1095 9.21813 11.7548 9.16746 11.3587Z" fill="white"/>
<path d="M4.1058 10.2123L3.87088 8.4573C3.82482 8.12566 3.54384 7.88153 3.2122 7.88153H1.47566C1.07493 7.88153 0.766312 8.23621 0.81698 8.63234L1.0519 10.3873C1.09796 10.7189 1.37894 10.9631 1.71058 10.9631H3.44711C3.84785 10.9631 4.15647 10.6084 4.1058 10.2123Z" fill="white"/>
<path d="M3.29427 4.36186L3.05936 2.6069C3.0133 2.27526 2.73232 2.03113 2.40067 2.03113H0.664142C0.263403 2.03113 -0.0452114 2.3858 0.00545667 2.78194L0.240372 4.53689C0.286434 4.86854 0.567412 5.11267 0.899057 5.11267H2.63559C3.03633 5.11267 3.34494 4.75799 3.29427 4.36186Z" fill="white"/>
</svg>
