<svg width="45" height="44" viewBox="0 0 45 44" fill="none" xmlns="http://www.w3.org/2000/svg">
<rect x="0.761907" y="0.750188" width="42.4996" height="42.4996" rx="21.2498" stroke="#E2E8F0" stroke-width="1.50038"/>
<path d="M28.2587 18.9799L27.3643 19.0815L28.2587 18.9799ZM28.706 22.921L29.6005 22.8195V22.8195L28.706 22.921ZM15.3292 22.921L14.4347 22.8195H14.4347L15.3292 22.921ZM15.7765 18.9799L16.671 19.0815L15.7765 18.9799ZM14.4635 24.8783L13.778 24.2948H13.778L14.4635 24.8783ZM29.5717 24.8783L28.8862 25.4619H28.8862L29.5717 24.8783ZM24.2882 14.3772H23.3879C23.3879 14.762 23.6325 15.1043 23.9965 15.2289L24.2882 14.3772ZM19.7471 14.3772L20.0387 15.2289C20.4028 15.1043 20.6473 14.762 20.6473 14.3772H19.7471ZM25.8614 30.3234C26.0358 29.8579 25.7999 29.339 25.3343 29.1645C24.8688 28.9901 24.3499 29.226 24.1754 29.6916L25.8614 30.3234ZM19.8599 29.6916C19.6854 29.226 19.1665 28.9901 18.701 29.1645C18.2354 29.339 17.9994 29.8579 18.1739 30.3234L19.8599 29.6916ZM27.7963 27.1068H16.239V28.9072H27.7963V27.1068ZM27.3643 19.0815L27.8116 23.0225L29.6005 22.8195L29.1532 18.8784L27.3643 19.0815ZM16.2237 23.0225L16.671 19.0815L14.882 18.8784L14.4347 22.8195L16.2237 23.0225ZM15.149 25.4619C15.7448 24.7619 16.1219 23.9192 16.2237 23.0225L14.4347 22.8195C14.3754 23.3424 14.1538 23.8534 13.778 24.2948L15.149 25.4619ZM27.8116 23.0225C27.9133 23.9192 28.2905 24.7619 28.8862 25.4619L30.2572 24.2948C29.8815 23.8534 29.6599 23.3424 29.6005 22.8195L27.8116 23.0225ZM16.239 27.1068C15.6356 27.1068 15.2231 26.8099 15.0369 26.4818C14.8596 26.1693 14.8605 25.8008 15.149 25.4619L13.778 24.2948C12.9692 25.245 12.9435 26.4408 13.471 27.3704C13.9896 28.2843 15.0135 28.9072 16.239 28.9072V27.1068ZM27.7963 28.9072C29.0218 28.9072 30.0456 28.2843 30.5643 27.3704C31.0918 26.4408 31.0661 25.245 30.2572 24.2948L28.8862 25.4619C29.1747 25.8008 29.1757 26.1693 28.9984 26.4818C28.8122 26.8099 28.3996 27.1068 27.7963 27.1068V28.9072ZM25.1884 14.3772V14.2735H23.3879V14.3772H25.1884ZM29.1532 18.8784C28.8663 16.3503 26.9931 14.3519 24.5798 13.5256L23.9965 15.2289C25.8691 15.8701 27.1688 17.3594 27.3643 19.0815L29.1532 18.8784ZM20.6473 14.3772V14.2735H18.8469V14.3772H20.6473ZM16.671 19.0815C16.8665 17.3594 18.1662 15.8701 20.0387 15.2289L19.4555 13.5256C17.0422 14.3519 15.169 16.3503 14.882 18.8784L16.671 19.0815ZM22.0176 12.9032C22.7744 12.9032 23.3879 13.5167 23.3879 14.2735H25.1884C25.1884 12.5224 23.7688 11.1028 22.0176 11.1028V12.9032ZM22.0176 11.1028C20.2665 11.1028 18.8469 12.5224 18.8469 14.2735H20.6473C20.6473 13.5167 21.2608 12.9032 22.0176 12.9032V11.1028ZM24.1754 29.6916C23.8754 30.4921 23.0424 31.1078 22.0176 31.1078V32.9082C23.7636 32.9082 25.2878 31.8539 25.8614 30.3234L24.1754 29.6916ZM22.0176 31.1078C20.9929 31.1078 20.1599 30.4921 19.8599 29.6916L18.1739 30.3234C18.7475 31.8539 20.2716 32.9082 22.0176 32.9082V31.1078Z" fill="white"/>
<rect x="28.1992" width="16" height="16" rx="8" fill="#FDE047"/>
<path d="M32.6786 12.5V11.3864L36.1239 7.81676C36.4918 7.42898 36.7951 7.08925 37.0337 6.79759C37.2757 6.5026 37.4563 6.22254 37.5756 5.95739C37.695 5.69223 37.7546 5.41051 37.7546 5.11222C37.7546 4.77415 37.6751 4.48248 37.516 4.23722C37.3569 3.98864 37.1398 3.79806 36.8647 3.66548C36.5896 3.52959 36.2797 3.46165 35.935 3.46165C35.5704 3.46165 35.2522 3.53622 34.9805 3.68537C34.7087 3.83452 34.4999 4.04498 34.354 4.31676C34.2082 4.58854 34.1353 4.90672 34.1353 5.27131H32.6687C32.6687 4.65151 32.8112 4.10961 33.0962 3.6456C33.3813 3.18158 33.7724 2.82197 34.2695 2.56676C34.7667 2.30824 35.3318 2.17898 35.9648 2.17898C36.6045 2.17898 37.168 2.30658 37.6552 2.56179C38.1457 2.81368 38.5285 3.15838 38.8036 3.59588C39.0787 4.03007 39.2163 4.5206 39.2163 5.06747C39.2163 5.44531 39.145 5.81487 39.0025 6.17614C38.8633 6.5374 38.6197 6.9401 38.2717 7.38423C37.9237 7.82505 37.4397 8.36032 36.82 8.99006L34.7965 11.108V11.1825H39.3803V12.5H32.6786Z" fill="#1E293B"/>
</svg>
