<svg width="63" height="20" viewBox="0 0 63 20" fill="none" xmlns="http://www.w3.org/2000/svg">
<g clip-path="url(#clip0_2034_24111)">
<path d="M16.829 3.17116C16.7196 3.0618 16.5712 3.00037 16.4165 3.00037C16.2619 3.00037 16.1135 3.0618 16.0041 3.17116L9.99988 9.17541L3.99563 3.17116C3.88623 3.0618 3.73789 3.00037 3.58321 3.00037C3.42853 3.00037 3.28018 3.0618 3.17079 3.17116C3.06143 3.28055 3 3.4289 3 3.58358C3 3.73825 3.06143 3.8866 3.17079 3.99599L9.17504 10.0002L3.17079 16.0045C3.06143 16.1139 3 16.2622 3 16.4169C3 16.5716 3.06143 16.7199 3.17079 16.8293C3.28018 16.9387 3.42853 17.0001 3.58321 17.0001C3.73789 17.0001 3.88623 16.9387 3.99563 16.8293L9.99988 10.8251L16.0041 16.8293C16.1135 16.9387 16.2619 17.0001 16.4165 17.0001C16.5712 17.0001 16.7196 16.9387 16.829 16.8293C16.9383 16.7199 16.9998 16.5716 16.9998 16.4169C16.9998 16.2622 16.9383 16.1139 16.829 16.0045L10.8247 10.0002L16.829 3.99599C16.9383 3.8866 16.9998 3.73825 16.9998 3.58358C16.9998 3.4289 16.9383 3.28055 16.829 3.17116Z" fill="#3787FF"/>
</g>
<path d="M25.1186 15V4.81818H28.7479C29.5367 4.81818 30.1913 4.95407 30.7116 5.22585C31.2353 5.49763 31.6264 5.87382 31.8849 6.3544C32.1435 6.83168 32.2727 7.38352 32.2727 8.00994C32.2727 8.63305 32.1418 9.18158 31.88 9.65554C31.6214 10.1262 31.2304 10.4924 30.7067 10.7543C30.1863 11.0161 29.5317 11.147 28.7429 11.147H25.9936V9.82457H28.6037C29.1009 9.82457 29.5052 9.75331 29.8168 9.6108C30.1316 9.46828 30.362 9.26113 30.5078 8.98935C30.6536 8.71757 30.7266 8.3911 30.7266 8.00994C30.7266 7.62547 30.652 7.29238 30.5028 7.01065C30.357 6.72893 30.1267 6.51349 29.8118 6.36435C29.5002 6.21188 29.0909 6.13565 28.5838 6.13565H26.6548V15H25.1186ZM30.1449 10.4062L32.6605 15H30.9105L28.4446 10.4062H30.1449ZM37.2882 15.1541C36.5358 15.1541 35.8879 14.9934 35.3443 14.6719C34.8041 14.3471 34.3865 13.8913 34.0915 13.3047C33.7998 12.7147 33.654 12.0237 33.654 11.2315C33.654 10.4493 33.7998 9.75994 34.0915 9.16335C34.3865 8.56676 34.7975 8.10109 35.3244 7.76633C35.8547 7.43158 36.4745 7.2642 37.1838 7.2642C37.6147 7.2642 38.0323 7.33546 38.4367 7.47798C38.841 7.6205 39.2039 7.84422 39.5254 8.14915C39.8469 8.45407 40.1005 8.85014 40.2861 9.33736C40.4717 9.82126 40.5645 10.4096 40.5645 11.1023V11.6293H34.4942V10.5156H39.1078C39.1078 10.1245 39.0283 9.77817 38.8692 9.47656C38.7101 9.17164 38.4864 8.93134 38.198 8.75568C37.913 8.58002 37.5782 8.49219 37.1938 8.49219C36.7761 8.49219 36.4116 8.59493 36.1 8.80043C35.7918 9.0026 35.5531 9.26776 35.3841 9.59588C35.2184 9.92069 35.1355 10.2737 35.1355 10.6548V11.5249C35.1355 12.0353 35.225 12.4695 35.404 12.8274C35.5863 13.1854 35.8398 13.4588 36.1646 13.6477C36.4894 13.8333 36.8689 13.9261 37.3031 13.9261C37.5849 13.9261 37.8417 13.8864 38.0737 13.8068C38.3057 13.724 38.5063 13.6013 38.6753 13.4389C38.8443 13.2765 38.9736 13.076 39.0631 12.8374L40.47 13.0909C40.3573 13.5052 40.1552 13.8681 39.8635 14.1797C39.5751 14.4879 39.2122 14.7282 38.7747 14.9006C38.3405 15.0696 37.845 15.1541 37.2882 15.1541ZM48.0061 9.22798L46.6588 9.46662C46.6025 9.29427 46.513 9.13021 46.3904 8.97443C46.271 8.81865 46.1086 8.69105 45.9031 8.59162C45.6976 8.49219 45.4408 8.44247 45.1325 8.44247C44.7116 8.44247 44.3603 8.53693 44.0786 8.72585C43.7968 8.91146 43.656 9.15175 43.656 9.44673C43.656 9.70194 43.7504 9.90743 43.9394 10.0632C44.1283 10.219 44.4332 10.3466 44.8541 10.446L46.0672 10.7244C46.7699 10.8868 47.2935 11.1371 47.6382 11.4751C47.9829 11.8132 48.1553 12.2524 48.1553 12.7926C48.1553 13.25 48.0227 13.6577 47.7575 14.0156C47.4957 14.3703 47.1295 14.6487 46.6588 14.8509C46.1915 15.053 45.6496 15.1541 45.0331 15.1541C44.178 15.1541 43.4803 14.9718 42.9401 14.6072C42.3998 14.2393 42.0684 13.7173 41.9458 13.0412L43.3825 12.8224C43.472 13.197 43.656 13.4804 43.9344 13.6726C44.2128 13.8615 44.5757 13.956 45.0232 13.956C45.5104 13.956 45.8998 13.8549 46.1915 13.6527C46.4832 13.4472 46.629 13.197 46.629 12.902C46.629 12.6634 46.5395 12.4628 46.3605 12.3004C46.1849 12.138 45.9147 12.0154 45.5502 11.9325L44.2575 11.6491C43.5449 11.4867 43.018 11.2282 42.6766 10.8736C42.3385 10.5189 42.1695 10.0698 42.1695 9.52628C42.1695 9.07552 42.2954 8.68111 42.5473 8.34304C42.7992 8.00497 43.1472 7.74148 43.5913 7.55256C44.0355 7.36032 44.5442 7.2642 45.1176 7.2642C45.9429 7.2642 46.5925 7.44318 47.0665 7.80114C47.5404 8.15578 47.8537 8.63139 48.0061 9.22798ZM53.1509 15.1541C52.3985 15.1541 51.7505 14.9934 51.207 14.6719C50.6667 14.3471 50.2491 13.8913 49.9541 13.3047C49.6625 12.7147 49.5166 12.0237 49.5166 11.2315C49.5166 10.4493 49.6625 9.75994 49.9541 9.16335C50.2491 8.56676 50.6601 8.10109 51.1871 7.76633C51.7174 7.43158 52.3372 7.2642 53.0465 7.2642C53.4773 7.2642 53.895 7.33546 54.2993 7.47798C54.7037 7.6205 55.0666 7.84422 55.3881 8.14915C55.7096 8.45407 55.9631 8.85014 56.1487 9.33736C56.3343 9.82126 56.4272 10.4096 56.4272 11.1023V11.6293H50.3568V10.5156H54.9705C54.9705 10.1245 54.8909 9.77817 54.7318 9.47656C54.5727 9.17164 54.349 8.93134 54.0607 8.75568C53.7756 8.58002 53.4409 8.49219 53.0564 8.49219C52.6388 8.49219 52.2742 8.59493 51.9627 8.80043C51.6544 9.0026 51.4158 9.26776 51.2468 9.59588C51.081 9.92069 50.9982 10.2737 50.9982 10.6548V11.5249C50.9982 12.0353 51.0877 12.4695 51.2666 12.8274C51.4489 13.1854 51.7025 13.4588 52.0273 13.6477C52.3521 13.8333 52.7316 13.9261 53.1658 13.9261C53.4475 13.9261 53.7044 13.8864 53.9364 13.8068C54.1684 13.724 54.3689 13.6013 54.5379 13.4389C54.707 13.2765 54.8362 13.076 54.9257 12.8374L56.3327 13.0909C56.22 13.5052 56.0178 13.8681 55.7262 14.1797C55.4378 14.4879 55.0749 14.7282 54.6374 14.9006C54.2032 15.0696 53.7077 15.1541 53.1509 15.1541ZM61.7111 7.36364V8.55682H57.5399V7.36364H61.7111ZM58.6585 5.53409H60.1451V12.7578C60.1451 13.0462 60.1881 13.2633 60.2743 13.4091C60.3605 13.5516 60.4715 13.6494 60.6074 13.7024C60.7466 13.7521 60.8974 13.777 61.0598 13.777C61.1791 13.777 61.2836 13.7687 61.373 13.7521C61.4625 13.7356 61.5321 13.7223 61.5818 13.7124L61.8503 14.9403C61.7641 14.9735 61.6415 15.0066 61.4824 15.0398C61.3233 15.0762 61.1245 15.0961 60.8858 15.0994C60.4947 15.1061 60.1301 15.0365 59.7921 14.8906C59.454 14.7448 59.1806 14.5194 58.9718 14.2145C58.763 13.9096 58.6585 13.5268 58.6585 13.0661V5.53409Z" fill="#3787FF"/>
<path d="M24 17.7841H33.0984V18.7386H24V17.7841ZM32.9977 17.7841H41.2907V18.7386H32.9977V17.7841ZM41.2845 17.7841H57.1534V18.7386H41.2845V17.7841ZM57.1472 17.7841H62.3524V18.7386H57.1472V17.7841Z" fill="#3787FF"/>
<defs>
<clipPath id="clip0_2034_24111">
<rect width="14" height="14" fill="white" transform="translate(3 3)"/>
</clipPath>
</defs>
</svg>
