<svg width="93" height="28" viewBox="0 0 93 28" fill="none" xmlns="http://www.w3.org/2000/svg">
<rect width="93" height="28" fill="#E6F1FB"/>
<ellipse cx="17" cy="11.25" rx="0.750001" ry="0.750001" fill="#3787FF"/>
<path d="M16.25 13.5H17V18.75M24.5 15C24.5 19.1422 21.1422 22.5 17 22.5C12.8579 22.5 9.5 19.1422 9.5 15C9.5 10.8579 12.8579 7.5 17 7.5C21.1422 7.5 24.5 10.8579 24.5 15Z" stroke="#3787FF" stroke-width="1.35" stroke-linecap="round" stroke-linejoin="round"/>
<path d="M37.008 16.612C37.008 18.196 35.58 19.12 33.744 19.12C31.656 19.12 30.372 18.1 30.372 16.576H31.764C31.764 17.392 32.436 17.956 33.756 17.956C34.788 17.956 35.592 17.464 35.592 16.636C35.592 15.892 35.136 15.568 34.236 15.4L32.856 15.136C31.344 14.86 30.552 14.032 30.552 12.796C30.552 11.356 31.776 10.336 33.696 10.336C35.424 10.336 36.864 11.128 36.864 12.856H35.508C35.508 11.932 34.776 11.464 33.66 11.464C32.676 11.464 31.956 11.92 31.956 12.7C31.956 13.396 32.388 13.744 33.336 13.924L34.716 14.176C36.276 14.464 37.008 15.316 37.008 16.612ZM44.1608 15.796V16.288H39.4568C39.4808 17.44 40.2368 18.04 41.1968 18.04C41.9168 18.04 42.5168 17.704 42.7688 17.032H44.1008C43.7768 18.28 42.6728 19.12 41.1728 19.12C39.3368 19.12 38.1248 17.848 38.1248 15.916C38.1248 13.996 39.3368 12.724 41.1608 12.724C42.9488 12.724 44.1608 13.948 44.1608 15.796ZM41.1608 13.768C40.2848 13.768 39.5648 14.308 39.4688 15.376H42.8288C42.7568 14.308 42.0488 13.768 41.1608 13.768ZM51.3224 15.796V16.288H46.6184C46.6424 17.44 47.3984 18.04 48.3584 18.04C49.0784 18.04 49.6784 17.704 49.9304 17.032H51.2624C50.9384 18.28 49.8344 19.12 48.3344 19.12C46.4984 19.12 45.2864 17.848 45.2864 15.916C45.2864 13.996 46.4984 12.724 48.3224 12.724C50.1104 12.724 51.3224 13.948 51.3224 15.796ZM48.3224 13.768C47.4464 13.768 46.7264 14.308 46.6304 15.376H49.9904C49.9184 14.308 49.2104 13.768 48.3224 13.768ZM59.6266 17.5L62.4466 10.456H64.0426V19H62.6986V15.1C62.6986 14.32 62.7226 13.42 62.8186 12.7L60.2386 19H58.9666L56.4106 12.556C56.4946 13.36 56.5066 14.32 56.4946 15.1V19H55.1626V10.456H56.8066L59.6266 17.5ZM65.5281 15.928C65.5281 14.032 66.8241 12.724 68.6841 12.724C70.5561 12.724 71.8521 14.032 71.8521 15.928C71.8521 17.824 70.5561 19.12 68.6841 19.12C66.8241 19.12 65.5281 17.824 65.5281 15.928ZM66.8721 15.916C66.8721 17.176 67.5921 17.992 68.6841 17.992C69.7881 17.992 70.5081 17.176 70.5081 15.916C70.5081 14.644 69.7881 13.84 68.6841 13.84C67.5921 13.84 66.8721 14.644 66.8721 15.916ZM76.0772 12.856H76.8812V14.032H76.0052C74.9852 14.032 74.5892 14.68 74.5892 15.724V19H73.2692V12.856H74.4692L74.6252 13.648C74.8532 13.216 75.3692 12.856 76.0772 12.856ZM83.6263 15.796V16.288H78.9223C78.9463 17.44 79.7023 18.04 80.6623 18.04C81.3823 18.04 81.9823 17.704 82.2343 17.032H83.5663C83.2423 18.28 82.1383 19.12 80.6383 19.12C78.8023 19.12 77.5903 17.848 77.5903 15.916C77.5903 13.996 78.8023 12.724 80.6263 12.724C82.4143 12.724 83.6263 13.948 83.6263 15.796ZM80.6263 13.768C79.7503 13.768 79.0303 14.308 78.9343 15.376H82.2943C82.2223 14.308 81.5143 13.768 80.6263 13.768Z" fill="#3787FF"/>
<path d="M30 21.34H44.7848V22.3H30V21.34ZM44.6864 21.34H51.9464V22.3H44.6864V21.34ZM51.9417 21.34H64.9666V22.3H51.9417V21.34ZM64.9641 21.34H77.2052V22.3H64.9641V21.34ZM76.9903 21.34H84.1903V22.3H76.9903V21.34Z" fill="#3787FF"/>
</svg>
