<svg width="40" height="41" viewBox="0 0 40 41" fill="none" xmlns="http://www.w3.org/2000/svg">
<circle opacity="0.4" cx="20" cy="20.3806" r="20" fill="#1F232F"/>
<g opacity="0.8">
<path d="M11.9641 12.6982C12.103 12.4266 12.3824 12.2556 12.6875 12.2556H16.75C17.0109 12.2556 17.2559 12.3809 17.4087 12.5924L27.9712 27.2174C28.1498 27.4648 28.1748 27.7914 28.0359 28.063C27.897 28.3347 27.6176 28.5056 27.3125 28.5056H23.25C22.9891 28.5056 22.7441 28.3804 22.5913 28.1689L12.0288 13.5438C11.8502 13.2965 11.8252 12.9699 11.9641 12.6982Z" fill="white"/>
<path d="M12.113 27.1186L26.738 12.4936C27.0552 12.1763 27.5697 12.1763 27.887 12.4936C28.2043 12.8109 28.2043 13.3253 27.887 13.6426L13.262 28.2676C12.9447 28.5849 12.4303 28.5849 12.113 28.2676C11.7957 27.9504 11.7957 27.4359 12.113 27.1186Z" fill="white"/>
</g>
</svg>
