<svg width="20" height="20" viewBox="0 0 20 20" fill="none" xmlns="http://www.w3.org/2000/svg">
<path d="M13.8506 1.05912C14.4337 1.78491 14.9357 2.67744 15.3437 3.68963C15.9221 3.50634 16.4619 3.2954 16.9555 3.05961L16.9565 3.05869C16.0639 2.20946 15.013 1.52695 13.8515 1.05904L13.8506 1.05912ZM6.51534 1.05912C5.35387 1.52702 4.30294 2.20953 3.41041 3.05876L3.41133 3.05968C3.90504 3.29548 4.44569 3.50639 5.02411 3.6897C5.43123 2.67744 5.93321 1.78494 6.51624 1.05919L6.51534 1.05912ZM10.6436 0.362793L10.6418 4.43212C12.0206 4.39988 13.3055 4.22488 14.4595 3.93841H14.4604C13.7945 2.34037 12.8882 1.14308 11.8832 0.499129H11.8823C11.477 0.427285 11.0636 0.382135 10.6436 0.362793ZM9.72348 0.362793C9.30348 0.382135 8.8899 0.427268 8.48464 0.49911C7.47884 1.14294 6.5725 2.34033 5.90647 3.9384H5.90739C7.06149 4.22484 8.34644 4.39984 9.72513 4.4321L9.72348 0.362793ZM14.781 4.79312H14.7801C13.4934 5.12193 12.0897 5.31535 10.6407 5.34853L10.6417 9.71991L15.5971 9.72083C15.5547 7.88237 15.2572 6.21142 14.781 4.79312ZM17.6178 3.7523H17.6169C17.0145 4.05534 16.356 4.32061 15.6541 4.54351V4.54443C16.1672 6.09826 16.4711 7.87124 16.5144 9.71986L19.9997 9.72078C19.8956 7.44297 19.0152 5.36678 17.6178 3.7523ZM5.58601 4.79312C5.11074 6.21156 4.81232 7.88249 4.76995 9.72073L9.72539 9.71981L9.72631 5.34938C8.27747 5.3153 6.87462 5.12187 5.58695 4.79305L5.58601 4.79312ZM2.74917 3.7523C1.35191 5.36695 0.471361 7.44294 0.367188 9.72071L3.8534 9.71979C3.89577 7.87213 4.19973 6.09823 4.71275 4.54435V4.54343C4.01088 4.32054 3.35233 4.05527 2.74995 3.75223L2.74917 3.7523ZM15.5962 10.6372H10.6417V10.6382L10.6435 15.0086C12.0914 15.0418 13.4942 15.2352 14.781 15.564C15.2562 14.1456 15.5547 12.4746 15.597 10.6371L15.5962 10.6372ZM4.76993 10.6372C4.81229 12.4757 5.11072 14.1456 5.58598 15.5641C6.87271 15.2353 8.27544 15.0419 9.72345 15.0087L9.7253 10.6383V10.6374L4.76993 10.6372ZM19.9989 10.6372H16.5146V10.6382C16.4713 12.4858 16.1682 14.2607 15.6552 15.8145H15.6571C16.358 16.0374 17.0156 16.3027 17.618 16.6057C19.0153 14.9902 19.8958 12.9151 20 10.6373L19.9989 10.6372ZM0.367188 10.6372C0.471269 12.9151 1.35181 14.9902 2.74917 16.6056H2.7501C3.35156 16.3026 4.00919 16.0373 4.71105 15.8144H4.71197C4.19893 14.2606 3.89591 12.4857 3.85354 10.6381V10.6371L0.367188 10.6372ZM5.02317 16.6674H5.02225C4.44382 16.8507 3.90591 17.0616 3.4113 17.2993C4.30383 18.1485 5.3566 18.8319 6.51906 19.2998H6.51999C5.93602 18.574 5.43128 17.6806 5.02324 16.6684L5.02317 16.6674ZM15.3439 16.6674V16.6683C14.9358 17.6806 14.4311 18.574 13.848 19.2998C15.0104 18.8319 16.0632 18.1485 16.9567 17.2992H16.9558C16.4621 17.0616 15.9233 16.8507 15.3449 16.6674L15.3439 16.6674ZM10.6435 15.9251L10.6417 19.9954V19.9963C11.0626 19.9761 11.4753 19.9309 11.8805 19.86H11.8824C12.8882 19.2162 13.7945 18.0179 14.4605 16.4198C13.3065 16.1324 12.0225 15.9574 10.6435 15.9251ZM9.72341 15.9251C8.34548 15.9574 7.06153 16.1324 5.90638 16.4198C6.57231 18.0178 7.47957 19.216 8.48455 19.86H8.48639C8.89167 19.9309 9.30431 19.9761 9.72522 19.9963V19.9954L9.72341 15.9251Z" fill="#002A54"/>
</svg>
